<svg width="16" height="16" viewBox="0 0 16 16" fill="none" xmlns="http://www.w3.org/2000/svg">
<g id="Vector_Vector">
<path id="Vector" d="M6.78355 4.0279C6.78355 4.40162 6.57554 4.74645 6.24204 4.92481C5.32233 5.42083 4.63298 6.13429 4.2926 7.18578C4.22556 7.39302 4.21008 7.61725 4.17226 7.83468C4.70862 7.83468 5.21403 7.75824 5.68678 7.84997C6.67181 8.04022 7.23911 8.73159 7.46431 9.65568C7.71873 10.6987 7.47634 11.6448 6.56351 12.3328C4.79113 13.6697 2.21767 12.6505 1.75867 10.4948C1.14152 7.59346 2.33457 4.5511 5.28107 3.11401C5.28795 3.11061 5.29483 3.10721 5.30342 3.10381C5.98762 2.77257 6.78355 3.27538 6.78355 4.02621V4.0279Z" fill="#2A2C35"/>
<path id="Vector_2" d="M13.7357 4.0279C13.7357 4.40162 13.5277 4.74645 13.1942 4.92481C12.2745 5.42083 11.5851 6.13429 11.2447 7.18578C11.1777 7.39302 11.1622 7.61725 11.1244 7.83468C11.6608 7.83468 12.1662 7.75824 12.6389 7.84997C13.624 8.04022 14.1913 8.73159 14.4165 9.65568C14.6709 10.6987 14.4285 11.6448 13.5157 12.3328C11.7433 13.6697 9.16982 12.6505 8.71082 10.4948C8.09367 7.59346 9.28671 4.5511 12.2332 3.11401C12.2401 3.11061 12.247 3.10721 12.2556 3.10381C12.9398 2.77257 13.7357 3.27538 13.7357 4.02621V4.0279Z" fill="#2A2C35"/>
</g>
</svg>
